# xmcd CD database file
#
# Track frame offsets:
#	150
#	12078
#	22776
#	31959
#	43649
#	55597
#	69464
#	83550
#	97483
#	112625
#
# Disc length: 1649 seconds
#
# Revision: 2
# Processed by: cddbd v1.5.2PL0 Copyright (c) Steve Scherf et al.
# Submitted via: jetAudio 7
#
DISCID=6a066f0a
DTITLE=Floyd Cramer - Country Classics Vol. 1
DYEAR=2004
DGENRE=Country
TTITLE0=Blue Eyes Crying In The Rain
TTITLE1=I'm So Lonesome I Could Cry
TTITLE2=San Antonio Rose
TTITLE3=Send Me The Pillow You Dream On
TTITLE4=Making Believe
TTITLE5=I Can't Stop Loving You
TTITLE6=Can't Help Falling In Love
TTITLE7=Love Me Tender
TTITLE8=I Really Don't Want To Know
TTITLE9=Last Date
EXTD=
EXTT0=
EXTT1=
EXTT2=
EXTT3=
EXTT4=
EXTT5=
EXTT6=
EXTT7=
EXTT8=
EXTT9=
PLAYORDER=
